<?xml version="1.0" encoding="UTF-8" standalone="no"?>
<svg
   viewBox="0 0 448 448"
   version="1.1"
   id="svg6486"
   width="448"
   height="448"
   xmlns="http://www.w3.org/2000/svg"
   xmlns:svg="http://www.w3.org/2000/svg">
  <defs
     id="defs6490" />
  <!--! Font Awesome Pro 6.4.2 by @fontawesome - https://fontawesome.com License - https://fontawesome.com/license (Commercial License) Copyright 2023 Fonticons, Inc. -->
  <path
     d="M 64,0 C 28.7,0 0,28.7 0,64 v 320 c 0,35.3 28.7,64 64,64 h 320 c 35.3,0 64,-28.7 64,-64 V 64 C 448,28.7 419.3,0 384,0 Z m 287.3,167.3 v 0 c 0,86.7 -66,186.6 -186.6,186.6 -37.2,0 -71.7,-10.8 -100.7,-29.4 5.3,0.6 10.4,0.8 15.8,0.8 30.7,0 58.9,-10.4 81.4,-28 -28.8,-0.6 -53,-19.5 -61.3,-45.5 10.1,1.5 19.2,1.5 29.6,-1.2 C 99.5,244.5 77,218.1 77,186.2 v -0.8 c 8.7,4.9 18.9,7.9 29.6,8.3 -9,-6 -16.4,-14.1 -21.5,-23.6 -5.1,-9.5 -7.8,-20.2 -7.7,-31 0,-12.2 3.2,-23.4 8.9,-33.1 32.3,39.8 80.8,65.8 135.2,68.6 -9.3,-44.5 24,-80.6 64,-80.6 18.9,0 35.9,7.9 47.9,20.7 14.8,-2.8 29,-8.3 41.6,-15.8 -4.9,15.2 -15.2,28 -28.8,36.1 13.2,-1.4 26,-5.1 37.8,-10.2 -8.9,13.1 -20.1,24.7 -32.9,34 0.2,2.8 0.2,5.7 0.2,8.5 z"
     id="path6484"
     style="fill:#81a1c1;fill-opacity:1" />
</svg>
