<?xml version="1.0" encoding="UTF-8" standalone="no"?>
<svg
   viewBox="0 0 448 448"
   version="1.1"
   id="svg82"
   width="448"
   height="448"
   xmlns="http://www.w3.org/2000/svg"
   xmlns:svg="http://www.w3.org/2000/svg">
  <defs
     id="defs86" />
  <!--! Font Awesome Pro 6.4.2 by @fontawesome - https://fontawesome.com License - https://fontawesome.com/license (Commercial License) Copyright 2023 Fonticons, Inc. -->
  <path
     d="M 400,0 H 48 A 48,48 0 0 0 0,48 v 352 a 48,48 0 0 0 48,48 H 185.25 V 295.69 h -63 V 224 h 63 v -54.64 c 0,-62.15 37,-96.48 93.67,-96.48 27.14,0 55.52,4.84 55.52,4.84 v 61 h -31.27 c -30.81,0 -40.42,19.12 -40.42,38.73 V 224 h 68.78 l -11,71.69 H 262.75 V 448 H 400 a 48,48 0 0 0 48,-48 V 48 A 48,48 0 0 0 400,0 Z"
     id="path80"
     style="fill:#81a1c1;fill-opacity:1" />
</svg>
